<svg width="24" height="24" viewBox="0 0 24 24" fill="none" xmlns="http://www.w3.org/2000/svg">
<g clip-path="url(#clip0_21_224)">
<path d="M22.9441 16.2844C22.4162 17.6245 21.6446 18.8428 20.7107 19.858C20.1421 18.721 19.4924 17.7057 18.7208 16.8123C17.9086 15.7971 16.934 14.9037 15.8782 14.1321C14.6599 13.2388 13.3604 12.5078 11.9391 11.9798C11.6955 10.5179 11.6549 8.97475 11.8579 7.51282C16.6904 8.81233 20.6295 11.9392 22.9848 16.0407C23.0253 16.122 22.9847 16.2032 22.9441 16.2844Z" fill="#ECF4F7"/>
<path d="M15.9188 0.893494C20.0203 2.35542 23.066 6.01024 23.6345 10.4366C21.0355 7.0661 17.2589 4.58896 12.7919 3.69552C13.1979 2.55848 13.7665 1.50263 14.4569 0.446777C15.1066 0.609246 15.9188 0.893494 15.9188 0.893494Z" fill="#ECF4F7"/>
<path d="M2.92383 19.4925C7.6751 19.4925 12.3451 17.7057 15.8781 14.1321C16.934 14.9036 17.868 15.7971 18.7207 16.8123C15.7157 20.264 11.6954 22.2945 7.47204 22.8631C6.57865 22.4976 5.72586 22.0103 4.95425 21.4417L2.92383 19.4925Z" fill="#5D9CEC"/>
<path d="M8.12173 14.2945C6.94405 14.8224 5.68518 15.1878 4.38567 15.4315C2.92374 11.0863 3.1674 6.61933 4.79175 2.68026C6.29432 1.54322 8.04049 0.731017 9.98973 0.406128C7.59383 4.46707 6.82222 9.462 8.12173 14.2945Z" fill="#FFE079"/>
<path d="M4.42637 15.3909C3.24869 15.5939 2.03041 15.6751 0.771547 15.5939C0.568485 15.066 0.406064 14.2133 0.406064 14.2133C0.243644 13.4823 0.203003 12.7513 0.203003 11.9798C0.203003 8.16252 1.98982 4.79195 4.79185 2.63965C3.20809 6.57872 2.9238 11.0863 4.42637 15.3909Z" fill="#FFE079"/>
<path d="M23.6345 10.4366C23.7157 10.9645 23.7563 11.4518 23.7563 11.9798C23.7563 13.4011 23.5126 14.7818 23.0253 16.0407C20.67 11.9391 16.7309 8.7716 11.8984 7.51273C12.0609 6.21323 12.3452 4.95436 12.7918 3.73608C17.2994 4.58888 21.0355 7.06602 23.6345 10.4366Z" fill="#ECF4F7"/>
<path d="M20.7106 19.8985C20.1015 20.5889 19.6548 20.9137 19.6548 20.9137C17.5837 22.7006 14.9035 23.7564 11.9797 23.7564C10.3959 23.7564 8.85274 23.4315 7.47205 22.863C11.6954 22.2945 15.7157 20.264 18.7208 16.8123C19.4924 17.7463 20.1827 18.7615 20.7106 19.8985Z" fill="#5D9CEC"/>
<path d="M15.9187 14.132C12.3857 17.7056 7.67505 19.533 2.92378 19.4924C1.94916 18.3554 1.2182 17.0153 0.771484 15.594C2.03035 15.6752 3.24863 15.594 4.42631 15.3909C5.72581 15.1878 6.98468 14.7818 8.16236 14.2945C9.54306 13.6853 10.8426 12.9138 11.9796 11.9797C13.3603 12.5077 14.7004 13.2387 15.9187 14.132Z" fill="#5D9CEC"/>
<path d="M11.9796 11.9797C10.802 12.9138 9.5431 13.7259 8.1624 14.2945C6.86289 9.46201 7.63445 4.46708 9.98976 0.365546C10.6395 0.243718 11.2893 0.203125 11.9796 0.203125C12.8324 0.203125 14.4567 0.44678 14.4567 0.44678C13.7664 1.46199 13.1979 2.55844 12.7918 3.69553C12.3451 4.9138 12.0202 6.21331 11.8984 7.47218C11.6953 8.9747 11.736 10.5178 11.9796 11.9797Z" fill="#FFE079"/>
<path d="M11.9797 23.9595C6.74115 23.9595 2.1523 20.6295 0.568544 15.6752C0.52795 15.594 0.568544 15.5534 0.609137 15.4721C0.64973 15.4315 0.730964 15.3909 0.771558 15.3909C1.9086 15.4721 3.00504 15.4315 4.14213 15.2285C2.88326 11.33 2.96445 7.14728 4.34519 3.2894C1.94924 5.40106 0.406076 8.52798 0.406076 11.9797C0.406076 12.7107 0.48731 13.4823 0.609137 14.2132C0.64973 14.335 0.568544 14.4163 0.446716 14.4569C0.324889 14.4569 0.243655 14.4163 0.203062 14.2945C0.0405933 13.5635 0 12.7919 0 12.0204C0 8.16249 1.82741 4.75132 4.67003 2.55843L4.71063 2.51784C6.7411 0.974675 9.25888 0.0406494 11.9797 0.0406494C12.8325 0.0406494 14.4162 0.284304 14.4975 0.284304C14.5787 0.284304 14.6193 0.324897 14.6599 0.406132C14.7005 0.487366 14.7005 0.527959 14.6599 0.609193C14.0507 1.54322 13.5228 2.55843 13.1167 3.57364C17.137 4.42644 20.7106 6.57874 23.3908 9.70561C22.6193 5.76654 19.8173 2.4366 15.9188 1.05591C15.797 1.01532 15.7564 0.893489 15.797 0.812255C15.8376 0.690427 15.9594 0.649834 16.0406 0.690427C20.7919 2.39601 24 6.90362 24 11.9798C24 14.9849 22.9036 17.8275 20.9137 20.0204C20.8731 20.061 20.7919 20.1016 20.7513 20.1016C20.6701 20.1016 20.6295 20.061 20.5889 19.9798C20.1016 18.9646 19.4924 18.0306 18.8021 17.1372C16.0813 20.1829 12.3858 22.2133 8.32491 22.9443C9.50259 23.3504 10.7615 23.5534 12.061 23.5534C14.8224 23.5534 17.5026 22.5382 19.6143 20.7514C19.6955 20.6702 19.8173 20.6702 19.8985 20.792C19.9797 20.8732 19.9797 20.9951 19.8579 21.0762C17.6244 22.9442 14.8629 23.9595 11.9797 23.9595ZM3.32998 19.6955C4.46702 20.9544 5.88836 21.9696 7.47211 22.66C11.7361 22.0508 15.6345 19.9797 18.4772 16.8122C17.7056 15.9189 16.8934 15.1067 15.9188 14.4163C12.5482 17.7463 8.12184 19.6143 3.32998 19.6955ZM12.1827 11.8173C15.9594 13.3198 19.0051 16 20.7919 19.4924C21.6853 18.4772 22.3757 17.2995 22.8224 16.0407C20.4264 11.9391 16.6092 8.97469 12.061 7.71582C11.9391 9.09652 11.9391 10.4772 12.1827 11.8173ZM1.05585 15.8376C1.50257 17.1371 2.1523 18.3148 3.00509 19.33C7.75636 19.33 12.2234 17.5026 15.5939 14.1727C14.4975 13.4011 13.2792 12.7107 12.0203 12.2234C8.85281 14.7412 4.95433 16 1.05585 15.8376ZM12.1016 7.35029C16.6904 8.60916 20.5076 11.4924 22.9848 15.594C23.3503 14.4569 23.5533 13.2387 23.5533 11.9797C23.5533 11.4924 23.5127 11.0051 23.4721 10.5178C20.8325 7.14723 17.0965 4.79192 12.9137 3.93913C12.5076 5.03557 12.264 6.17266 12.1016 7.35029ZM4.95433 2.76149C3.32998 6.7412 3.20815 11.127 4.54825 15.1879C5.6853 14.9848 6.82238 14.66 7.91883 14.1727C6.70056 9.58383 7.30969 4.79197 9.62441 0.649834C7.87819 1.01527 6.29443 1.74623 4.95433 2.76149ZM10.1117 0.5686C7.75636 4.71073 7.10658 9.462 8.28426 14.0508C9.50254 13.4823 10.6802 12.792 11.7767 11.9392C11.1675 7.95948 12.0203 3.93917 14.132 0.649834C13.6447 0.5686 12.6295 0.446772 12.0203 0.446772C11.3299 0.406132 10.7208 0.446772 10.1117 0.5686Z" fill="#51565F"/>
</g>
<defs>
<clipPath id="clip0_21_224">
<rect width="24" height="24" fill="white"/>
</clipPath>
</defs>
</svg>
